<?xml version="1.0" encoding="utf-8"?>
<!-- Generator: Adobe Illustrator 14.0.0, SVG Export Plug-In . SVG Version: 6.00 Build 43363)  -->
<!DOCTYPE svg PUBLIC "-//W3C//DTD SVG 1.1//EN" "http://www.w3.org/Graphics/SVG/1.1/DTD/svg11.dtd">
<svg version="1.1" id="stripe" xmlns="http://www.w3.org/2000/svg" xmlns:xlink="http://www.w3.org/1999/xlink" x="0px" y="0px"
	 width="792px" height="612px" viewBox="0 0 792 612" enable-background="new 0 0 792 612" xml:space="preserve">
<path id="object" fill="none" d="M593,368c-17.3-1.3-80.3-18.7-115-42s-88.3-18-88.3-18s-30.4,7-100.7,7.3
	C171,298,143.7,216,143.7,216s-4.7,0.7-8.7,47c38.7,51.7,107.3,77.7,143.3,81.7c0,0,67.7,5.3,104.2-3.102
	c43.8-10.1,87,11.5,130,42.5c0,0,50,11,69.5,13.5c20.5-6.5,74.1-25.3,70.7-25.1C642.5,373.1,593,368,593,368z"/>
</svg>
